<svg width="18" height="13" viewBox="0 0 18 13" fill="none" xmlns="http://www.w3.org/2000/svg">
<path d="M0.75 0.8125C0.75 0.630164 0.822433 0.455295 0.951364 0.326364C1.0803 0.197433 1.25516 0.125 1.4375 0.125H16.5625C16.7448 0.125 16.9197 0.197433 17.0486 0.326364C17.1776 0.455295 17.25 0.630164 17.25 0.8125C17.25 0.994836 17.1776 1.1697 17.0486 1.29864C16.9197 1.42757 16.7448 1.5 16.5625 1.5H1.4375C1.25516 1.5 1.0803 1.42757 0.951364 1.29864C0.822433 1.1697 0.75 0.994836 0.75 0.8125ZM0.75 6.3125C0.75 6.13016 0.822433 5.9553 0.951364 5.82636C1.0803 5.69743 1.25516 5.625 1.4375 5.625H16.5625C16.7448 5.625 16.9197 5.69743 17.0486 5.82636C17.1776 5.9553 17.25 6.13016 17.25 6.3125C17.25 6.49484 17.1776 6.6697 17.0486 6.79864C16.9197 6.92757 16.7448 7 16.5625 7H1.4375C1.25516 7 1.0803 6.92757 0.951364 6.79864C0.822433 6.6697 0.75 6.49484 0.75 6.3125ZM0.75 11.8125C0.75 11.6302 0.822433 11.4553 0.951364 11.3264C1.0803 11.1974 1.25516 11.125 1.4375 11.125H16.5625C16.7448 11.125 16.9197 11.1974 17.0486 11.3264C17.1776 11.4553 17.25 11.6302 17.25 11.8125C17.25 11.9948 17.1776 12.1697 17.0486 12.2986C16.9197 12.4276 16.7448 12.5 16.5625 12.5H1.4375C1.25516 12.5 1.0803 12.4276 0.951364 12.2986C0.822433 12.1697 0.75 11.9948 0.75 11.8125Z" fill="black"/>
</svg>
