<svg width="31" height="30" viewBox="0 0 31 30" fill="none" xmlns="http://www.w3.org/2000/svg">
<path d="M12.4166 3C10.7811 3 9.21257 3.63214 8.05609 4.75736C6.89962 5.88258 6.24992 7.4087 6.24992 9C6.24992 10.5913 6.89962 12.1174 8.05609 13.2426C9.21257 14.3679 10.7811 15 12.4166 15C14.0521 15 15.6206 14.3679 16.7771 13.2426C17.9336 12.1174 18.5833 10.5913 18.5833 9C18.5833 7.4087 17.9336 5.88258 16.7771 4.75736C15.6206 3.63214 14.0521 3 12.4166 3ZM3.16659 9C3.16659 6.61305 4.14114 4.32387 5.87585 2.63604C7.61056 0.948211 9.96333 0 12.4166 0C14.8698 0 17.2226 0.948211 18.9573 2.63604C20.692 4.32387 21.6666 6.61305 21.6666 9C21.6666 11.3869 20.692 13.6761 18.9573 15.364C17.2226 17.0518 14.8698 18 12.4166 18C9.96333 18 7.61056 17.0518 5.87585 15.364C4.14114 13.6761 3.16659 11.3869 3.16659 9ZM26.2916 13.5C26.7005 13.5 27.0926 13.658 27.3817 13.9393C27.6708 14.2206 27.8333 14.6022 27.8333 15V16.5H29.3749C29.7838 16.5 30.1759 16.658 30.465 16.9393C30.7542 17.2206 30.9166 17.6022 30.9166 18C30.9166 18.3978 30.7542 18.7794 30.465 19.0607C30.1759 19.342 29.7838 19.5 29.3749 19.5H27.8333V21C27.8333 21.3978 27.6708 21.7794 27.3817 22.0607C27.0926 22.342 26.7005 22.5 26.2916 22.5C25.8827 22.5 25.4906 22.342 25.2015 22.0607C24.9123 21.7794 24.7499 21.3978 24.7499 21V19.5H23.2083C22.7994 19.5 22.4072 19.342 22.1181 19.0607C21.829 18.7794 21.6666 18.3978 21.6666 18C21.6666 17.6022 21.829 17.2206 22.1181 16.9393C22.4072 16.658 22.7994 16.5 23.2083 16.5H24.7499V15C24.7499 14.6022 24.9123 14.2206 25.2015 13.9393C25.4906 13.658 25.8827 13.5 26.2916 13.5ZM7.02075 24C5.07825 24 3.16659 25.8195 3.16659 28.5C3.16659 28.8978 3.00416 29.2794 2.71504 29.5607C2.42592 29.842 2.03379 30 1.62492 30C1.21604 30 0.823914 29.842 0.534796 29.5607C0.245677 29.2794 0.083252 28.8978 0.083252 28.5C0.083252 24.552 3.00163 21 7.02075 21H17.8124C21.8315 21 24.7499 24.552 24.7499 28.5C24.7499 28.8978 24.5875 29.2794 24.2984 29.5607C24.0093 29.842 23.6171 30 23.2083 30C22.7994 30 22.4072 29.842 22.1181 29.5607C21.829 29.2794 21.6666 28.8978 21.6666 28.5C21.6666 25.8195 19.7549 24 17.8124 24H7.02075Z" fill="#1A89DB"/>
</svg>
