<svg width="33" height="33" viewBox="0 0 33 33" fill="none" xmlns="http://www.w3.org/2000/svg">
<path d="M25.6667 25.75C26.5508 25.75 27.3986 26.11 28.0238 26.7507C28.6489 27.3915 29.0001 28.2605 29.0001 29.1667C29.0001 30.0728 28.6489 30.9419 28.0238 31.5826C27.3986 32.2234 26.5508 32.5833 25.6667 32.5833C24.7827 32.5833 23.9348 32.2234 23.3097 31.5826C22.6846 30.9419 22.3334 30.0728 22.3334 29.1667C22.3334 28.2605 22.6846 27.3915 23.3097 26.7507C23.9348 26.11 24.7827 25.75 25.6667 25.75ZM25.6667 27.4583C25.2247 27.4583 24.8008 27.6383 24.4882 27.9587C24.1757 28.2791 24.0001 28.7136 24.0001 29.1667C24.0001 29.6197 24.1757 30.0543 24.4882 30.3746C24.8008 30.695 25.2247 30.875 25.6667 30.875C26.1088 30.875 26.5327 30.695 26.8453 30.3746C27.1578 30.0543 27.3334 29.6197 27.3334 29.1667C27.3334 28.7136 27.1578 28.2791 26.8453 27.9587C26.5327 27.6383 26.1088 27.4583 25.6667 27.4583ZM10.6667 25.75C11.5508 25.75 12.3986 26.11 13.0238 26.7507C13.6489 27.3915 14.0001 28.2605 14.0001 29.1667C14.0001 30.0728 13.6489 30.9419 13.0238 31.5826C12.3986 32.2234 11.5508 32.5833 10.6667 32.5833C9.78269 32.5833 8.93485 32.2234 8.30973 31.5826C7.6846 30.9419 7.33341 30.0728 7.33341 29.1667C7.33341 28.2605 7.6846 27.3915 8.30973 26.7507C8.93485 26.11 9.78269 25.75 10.6667 25.75ZM10.6667 27.4583C10.2247 27.4583 9.8008 27.6383 9.48824 27.9587C9.17568 28.2791 9.00008 28.7136 9.00008 29.1667C9.00008 29.6197 9.17568 30.0543 9.48824 30.3746C9.8008 30.695 10.2247 30.875 10.6667 30.875C11.1088 30.875 11.5327 30.695 11.8453 30.3746C12.1578 30.0543 12.3334 29.6197 12.3334 29.1667C12.3334 28.7136 12.1578 28.2791 11.8453 27.9587C11.5327 27.6383 11.1088 27.4583 10.6667 27.4583ZM29.0001 5.25H6.11675L10.3667 15.5H24.0001C24.5501 15.5 25.0334 15.2267 25.3334 14.8167L30.3334 7.98333C30.5501 7.69292 30.6667 7.33417 30.6667 6.95833C30.6667 6.50525 30.4912 6.07073 30.1786 5.75036C29.866 5.42998 29.4421 5.25 29.0001 5.25ZM24.0001 17.2083H10.4501L9.16675 19.8733L9.00008 20.625C9.00008 21.0781 9.17568 21.5126 9.48824 21.833C9.8008 22.1533 10.2247 22.3333 10.6667 22.3333H29.0001V24.0417H10.6667C9.78269 24.0417 8.93485 23.6817 8.30973 23.0409C7.6846 22.4002 7.33341 21.5312 7.33341 20.625C7.33292 20.0454 7.47631 19.4751 7.75008 18.9679L8.95008 16.4567L2.90008 1.83333H0.666748V0.125H4.00008L5.41675 3.54167H29.0001C29.8841 3.54167 30.732 3.90164 31.3571 4.54238C31.9822 5.18313 32.3334 6.05218 32.3334 6.95833C32.3334 7.8125 32.0501 8.53 31.5834 9.11083L26.7334 15.7562C26.1334 16.6275 25.1334 17.2083 24.0001 17.2083Z" fill="#198ADA"/>
</svg>
