<svg width="18" height="18" viewBox="0 0 18 18" fill="none" xmlns="http://www.w3.org/2000/svg">
<g clip-path="url(#clip0_951_467)">
<path fill-rule="evenodd" clip-rule="evenodd" d="M9.53026 11.7802C9.38962 11.9209 9.19889 11.9998 9.00001 11.9998C8.80114 11.9998 8.61041 11.9209 8.46976 11.7802L4.22701 7.5375C4.15538 7.46831 4.09824 7.38555 4.05894 7.29405C4.01963 7.20255 3.99894 7.10413 3.99808 7.00455C3.99721 6.90496 4.01619 6.8062 4.0539 6.71403C4.09161 6.62186 4.1473 6.53812 4.21772 6.4677C4.28814 6.39728 4.37188 6.34159 4.46405 6.30388C4.55622 6.26617 4.65498 6.24719 4.75456 6.24806C4.85415 6.24893 4.95256 6.26962 5.04407 6.30892C5.13557 6.34823 5.21833 6.40536 5.28751 6.477L9.00001 10.1895L12.7125 6.477C12.854 6.34038 13.0434 6.26478 13.2401 6.26649C13.4367 6.2682 13.6248 6.34708 13.7639 6.48613C13.9029 6.62519 13.9818 6.8133 13.9835 7.00995C13.9852 7.20659 13.9096 7.39605 13.773 7.5375L9.53026 11.7802Z" fill="black"/>
</g>
<defs>
<clipPath id="clip0_951_467">
<rect width="18" height="18" fill="white"/>
</clipPath>
</defs>
</svg>
