<svg width="23" height="27" viewBox="0 0 23 27" fill="none" xmlns="http://www.w3.org/2000/svg">
<path d="M22.0089 26.2073L13.2177 16.1914C12.5157 16.8728 11.7085 17.4001 10.7959 17.7733C9.88342 18.1465 8.96621 18.3331 8.04432 18.3331C5.79621 18.3331 3.89347 17.4465 2.33608 15.6732C0.778693 13.8989 0 11.7316 0 9.17136C0 6.61114 0.777757 4.44279 2.33327 2.66631C3.88972 0.888771 5.79153 0 8.0387 0C10.2868 0 12.1905 0.887172 13.7497 2.66152C15.309 4.43586 16.0886 6.60421 16.0886 9.16656C16.0886 10.2777 15.9159 11.353 15.5706 12.3927C15.2243 13.4323 14.7704 14.3216 14.2088 15.0606L23 25.0749L22.0089 26.2073ZM8.04432 16.732C9.90681 16.732 11.4796 16.0016 12.7628 14.5408C14.045 13.0799 14.6861 11.288 14.6861 9.16496C14.6861 7.04299 14.045 5.25159 12.7628 3.79074C11.4806 2.32989 9.90822 1.59947 8.04572 1.59947C6.18322 1.59947 4.61039 2.32989 3.32723 3.79074C2.04501 5.25159 1.40389 7.04299 1.40389 9.16496C1.40389 11.2869 2.04501 13.0783 3.32723 14.5392C4.60945 16 6.18182 16.732 8.04432 16.732Z" fill="#1A89DB"/>
</svg>
