<svg width="13" height="12" viewBox="0 0 13 12" fill="none" xmlns="http://www.w3.org/2000/svg">
<path d="M2.86397 11.992C2.79997 11.992 2.73597 11.96 2.67197 11.928C2.54397 11.832 2.51197 11.704 2.54397 11.576L3.79197 7.736L0.52797 5.336C0.39997 5.24 0.367969 5.112 0.399969 4.984C0.431969 4.856 0.559969 4.76 0.719969 4.76H4.78397L5.99997 0.888002C6.03197 0.760002 6.15997 0.664001 6.31997 0.664001C6.47997 0.664001 6.57597 0.760002 6.63997 0.888002L7.88797 4.76H11.952C12.08 4.76 12.208 4.824 12.272 4.952C12.336 5.08 12.272 5.24 12.144 5.304L8.87997 7.672L10.128 11.512C10.16 11.64 10.128 11.8 9.99997 11.864C9.87197 11.928 9.74397 11.96 9.61597 11.864L6.31997 9.56L3.05597 11.928C2.99197 11.96 2.92797 11.992 2.86397 11.992ZM6.31997 8.824C6.38397 8.824 6.44797 8.856 6.51197 8.888L9.16797 10.84L8.14397 7.704C8.11197 7.576 8.14397 7.416 8.27197 7.352L10.928 5.4H7.63197C7.50397 5.4 7.37597 5.304 7.31197 5.176L6.31997 2.04L5.29597 5.176C5.26397 5.304 5.13597 5.4 4.97597 5.4H1.67997L4.33597 7.352C4.46397 7.448 4.49597 7.576 4.46397 7.704L3.47197 10.84L6.12797 8.888C6.19197 8.856 6.25597 8.824 6.31997 8.824Z" fill="#1A89DB"/>
</svg>
